<svg xmlns="http://www.w3.org/2000/svg" viewBox="0 0 605.82 199.77"><defs><style>.cls-1{fill:#0066f5;}</style></defs><title>Asset 4</title><g id="Layer_2" data-name="Layer 2"><g id="Layer_1-2" data-name="Layer 1"><path d="M52.75,32.17a18.84,18.84,0,0,0-16.46,8.64q-5.91,8.65-5.91,23.83,0,31.58,24,31.58a49.1,49.1,0,0,0,14.07-2,140.43,140.43,0,0,0,13.69-4.87v25q-13.7,6.08-31,6.07-24.76,0-38-14.37T0,64.49q0-17,6.4-29.85A45.8,45.8,0,0,1,24.8,14.85q12-6.91,28.25-6.92a77.76,77.76,0,0,1,33.89,7.71l-9,23.27a99.88,99.88,0,0,0-12.12-4.79A42.27,42.27,0,0,0,52.75,32.17Z"/><path d="M182.71,76.32q0,20.79-11.19,32.43t-31.31,11.64q-19.31,0-30.71-11.9T98.09,76.32q0-20.73,11.18-32.21t31.39-11.49a44.74,44.74,0,0,1,22.07,5.31,36.31,36.31,0,0,1,14.78,15.23Q182.71,63.08,182.71,76.32Zm-54.92,0q0,10.92,2.92,16.64t9.8,5.73q6.81,0,9.62-5.73t2.8-16.64q0-10.86-2.84-16.39t-9.73-5.54q-6.74,0-9.65,5.5T127.79,76.32Z"/><path d="M221.62,118.89,189.29,34.12h30.53l14.37,50.13c.05.25.15.67.3,1.27s.29,1.31.44,2.13.29,1.7.42,2.62a20,20,0,0,1,.18,2.58h.53a30.25,30.25,0,0,1,1.34-8.45l15-50.28h30.45l-32.32,84.77Z"/><path d="M292.4,13q0-6.58,3.66-9.8T307.88,0q8.16,0,11.9,3.29T323.52,13q0,12.87-15.64,12.87Q292.4,25.89,292.4,13Zm30,105.87H293.14V34.12H322.4Z"/><path d="M369.16,120.39a25.37,25.37,0,0,1-15.82-5.17q-6.78-5.16-10.48-15.19a67.43,67.43,0,0,1-3.7-23.41q0-20.65,8.3-32.33t22.82-11.67a26.24,26.24,0,0,1,12.46,2.84q5.36,2.85,9.77,9.58h.59a141.68,141.68,0,0,1-1.42-19.9V2.47h29.48V118.89H399.09l-6.29-10.7h-1.12Q384.12,120.39,369.16,120.39Zm12-23.12q7,0,9.92-4.42t3.1-13.62V76.91q0-11.22-3.22-16t-10.1-4.75q-5.76,0-8.94,5.42t-3.18,15.45q0,9.89,3.22,15A10.22,10.22,0,0,0,381.13,97.27Z"/><path class="cls-1" d="M501.74,118.89h-30V61q0-10.54.45-19.31a64.9,64.9,0,0,1-6.88,7L452.89,59,437.55,40.1,475.11,9.5h26.63Z"/><path class="cls-1" d="M605.82,59.56q0,32.1-13.84,46.46t-44.3,14.37a115.89,115.89,0,0,1-15.26-.75V96.22a70.07,70.07,0,0,0,12.87,1.2q15.86,0,24.46-6.55t9.36-20.69h-.9A27.13,27.13,0,0,1,572.45,78a19.73,19.73,0,0,1-7,3.67,35.13,35.13,0,0,1-10.25,1.27Q541,82.9,533,73.4t-8-26.19Q525,29,535.37,18.7t28.4-10.32q20.06,0,31.05,13.32T605.82,59.56ZM564.59,32a9.94,9.94,0,0,0-7.89,3.52q-3,3.51-3,11.3,0,6.13,2.62,9.76t8,3.63a11.7,11.7,0,0,0,8.46-3.52,11.41,11.41,0,0,0,3.59-8.45A19.55,19.55,0,0,0,573,36.81Q569.68,32,564.59,32Z"/><path d="M79,186.51a11.41,11.41,0,0,1-4.74,9.81q-4.74,3.45-13.3,3.45-9.06,0-14.13-2.87v-6.4a34,34,0,0,0,7,2.62,29.31,29.31,0,0,0,7.25.95q5.42,0,8.32-1.72a5.94,5.94,0,0,0,.6-9.81q-2.31-1.89-9-4.47a49.49,49.49,0,0,1-9-4.13,12.3,12.3,0,0,1-4-4,10.46,10.46,0,0,1-1.31-5.36,10.23,10.23,0,0,1,4.53-8.79q4.53-3.22,12.43-3.22a36.45,36.45,0,0,1,14.38,3l-2.45,5.61a33,33,0,0,0-12.43-2.82c-3.27,0-5.73.51-7.4,1.54a4.74,4.74,0,0,0-2.49,4.24,5.16,5.16,0,0,0,.93,3.11,9.19,9.19,0,0,0,3,2.45,65.91,65.91,0,0,0,8,3.37q8.1,3,11,6A10.46,10.46,0,0,1,79,186.51Z"/><path d="M176.55,199.77q-9.88,0-15.32-6.09t-5.42-17.23q0-11.43,5.51-17.67T177,152.55a30.43,30.43,0,0,1,6.56.71,21.57,21.57,0,0,1,5.16,1.66l-2.12,5.86a32.13,32.13,0,0,0-5-1.52,22.32,22.32,0,0,0-4.78-.6q-13.87,0-13.88,17.71,0,8.38,3.39,12.88t10,4.49a30.58,30.58,0,0,0,11.68-2.45v6.11A24.84,24.84,0,0,1,176.55,199.77Z"/><path d="M295,198.94l-1.37-6.49h-.33a19.16,19.16,0,0,1-6.8,5.8,20.75,20.75,0,0,1-8.46,1.52q-6.78,0-10.62-3.49t-3.84-9.94q0-13.8,22.07-14.46l7.73-.25V168.8q0-5.36-2.31-7.92c-1.54-1.7-4-2.55-7.38-2.55q-5.69,0-12.88,3.49l-2.12-5.28a33.16,33.16,0,0,1,15.42-3.91q8.14,0,12.07,3.62t3.93,11.6v31.09Zm-15.59-4.87q6.45,0,10.12-3.53t3.68-9.89v-4.12l-6.9.29q-8.22.3-11.86,2.56a7.7,7.7,0,0,0-3.64,7.05,7.1,7.1,0,0,0,2.26,5.69A9.43,9.43,0,0,0,279.4,194.07Z"/><path d="M440.49,198.94V169.3q0-5.45-2.33-8.17t-7.23-2.72q-6.45,0-9.52,3.7t-3.08,11.39v25.44h-6.9V169.3q0-5.45-2.32-8.17c-1.56-1.81-4-2.72-7.28-2.72q-6.48,0-9.5,3.89t-3,12.74v23.9h-6.9V153.38H388l1.13,6.24h.33a13.56,13.56,0,0,1,5.51-5.2,16.76,16.76,0,0,1,8-1.87q10.68,0,14,7.73h.33a14.52,14.52,0,0,1,5.91-5.65,18.23,18.23,0,0,1,8.81-2.08q7.72,0,11.58,4t3.84,12.7v29.72Z"/><path d="M559.1,186.51a11.41,11.41,0,0,1-4.74,9.81q-4.74,3.45-13.3,3.45-9.07,0-14.14-2.87v-6.4a34.25,34.25,0,0,0,7.05,2.62,29.25,29.25,0,0,0,7.25.95q5.4,0,8.32-1.72a5.94,5.94,0,0,0,.6-9.81q-2.31-1.89-9-4.47a49.49,49.49,0,0,1-9-4.13,12.3,12.3,0,0,1-4-4,10.46,10.46,0,0,1-1.31-5.36,10.23,10.23,0,0,1,4.53-8.79q4.53-3.22,12.43-3.22a36.45,36.45,0,0,1,14.38,3l-2.45,5.61a33.09,33.09,0,0,0-12.43-2.82q-4.9,0-7.4,1.54a4.74,4.74,0,0,0-2.49,4.24,5.16,5.16,0,0,0,.93,3.11,9.19,9.19,0,0,0,3,2.45,65.91,65.91,0,0,0,8,3.37q8.1,3,11,6A10.5,10.5,0,0,1,559.1,186.51Z"/></g></g></svg>